{"title":"The Twelve Chairs [DVDRip] [1970] [Comedy] [Xvid] [JoiresWay]","uid":5114807,"size":731153642,"categoryP":"video","categoryS":"movies","magnet":"?xt=urn:btih:59827f4a2f26d4678a62c5036d7ecbfd3f690b36&amp;dn=The+Twelve+Chairs+%5BDVDRip%5D+%5B1970%5D+%5BComedy%5D+%5BXvid%5D+%5BJoiresWay%5D&amp;tr=udp%3A%2F%2Ftracker.openbittorrent.com%3A80&amp;tr=udp%3A%2F%2Fopen.demonii.com%3A1337&amp;tr=udp%3A%2F%2Ftracker.coppersurfer.tk%3A6969&amp;tr=udp%3A%2F%2Fexodus.desync.com%3A6969","seeders":0,"leechers":1,"uploader":"JoiresWay-II","files":5,"time":1254963343,"description":"---The Twelve Chairs---\n                                       A wild and hilarious chase for a fortune in jewels.\n\nDirector: Mel Brooks\n\nCast: Frank Langella, Dom Deluise, Ron Moody\n\nYear: 1970\n\nGenre: Comedy\n\nCompany: Crossbow Productions\n\niMDB: http://www.imdb.com/title/tt0066495/\n\n\n\n---Notes---\n\nThis is a 700 MB Rip for all those who have relatively lower speed connections. Subtitles file included. So, all you gotta do is write in a CD and enjoy a beautiful comedy. Ripped using Fair Use Wizard. \n\n\n---MediaInfo Extract(Technical Information)---\n\nGeneral\nComplete name                    : C:Documents and SettingsAdministratorDesktopThe_Twelve_Chairs_DVDRipThe_Twelve_Chairs.avi\nFormat                           : AVI\nFormat/Info                      : Audio Video Interleave\nFile size                        : 694 MiB\nDuration                         : 1h 33mn\nOverall bit rate                 : 1 038 Kbps\nWriting application              : FairUse Wizard - http://fairusewizard.com\nWriting library                  : The best and REALLY easy backup tool\n\nVideo\nID                               : 0\nFormat                           : MPEG-4 Visual\nFormat profile                   : AdvancedSimple@L5\nFormat settings, BVOP            : Yes\nFormat settings, QPel            : No\nFormat settings, GMC             : No warppoints\nFormat settings, Matrix          : Default (MPEG)\nMuxing mode                      : Packed bitstream\nCodec ID                         : XVID\nCodec ID/Hint                    : XviD\nDuration                         : 1h 33mn\nBit rate                         : 834 Kbps\nWidth                            : 576 pixels\nHeight                           : 320 pixels\nDisplay aspect ratio             : 16/9\nFrame rate                       : 29.970 fps\nResolution                       : 24 bits\nColorimetry                      : 4:2:0\nScan type                        : Progressive\nBits/(Pixel*Frame)               : 0.151\nStream size                      : 558 MiB (80%)\nWriting library                  : XviD 1.2.0.dev47 (UTC 2006-11-01)\n\nAudio\nID                               : 1\nFormat                           : AC-3\nFormat/Info                      : Audio Coding 3\nCodec ID                         : 2000\nDuration                         : 1h 33mn\nBit rate mode                    : Constant\nBit rate                         : 192 Kbps\nChannel(s)                       : 2 channels\nChannel positions                : L R\nSampling rate                    : 48.0 KHz\nStream size                      : 128 MiB (19%)\nAlignment                        : Split accross interleaves\nInterleave, duration             : 33 ms (1.00 video frame)\nInterleave, preload duration     : 500 ms\n\n","torrent":{"xt":"urn:btih:59827f4a2f26d4678a62c5036d7ecbfd3f690b36","amp;dn":"The+Twelve+Chairs+%5BDVDRip%5D+%5B1970%5D+%5BComedy%5D+%5BXvid%5D+%5BJoiresWay%5D","amp;tr":["udp%3A%2F%2Ftracker.openbittorrent.com%3A80","udp%3A%2F%2Fopen.demonii.com%3A1337","udp%3A%2F%2Ftracker.coppersurfer.tk%3A6969","udp%3A%2F%2Fexodus.desync.com%3A6969"],"infoHash":"59827f4a2f26d4678a62c5036d7ecbfd3f690b36","infoHashBuffer":{"type":"Buffer","data":[89,130,127,74,47,38,212,103,138,98,197,3,109,126,203,253,63,105,11,54]},"announce":[],"urlList":[]}}